HIERARCHY
ROOT pelvis
{
  OFFSET 0 100 0
  CHANNELS 6 Xposition Yposition Zposition Zrotation Xrotation Yrotation
  JOINT pelvis_right_femur
  {
    OFFSET -10.78128 -3.44521 -0.5502486
    CHANNELS 3 Zrotation Xrotation Yrotation
    JOINT right_femur_tibia
    {
      OFFSET -0.8047443 -44.0398 -0.1307829
      CHANNELS 3 Zrotation Xrotation Yrotation
      JOINT right_tibia_foot
      {
        OFFSET 3.006224 -47.83518 -5
        CHANNELS 3 Zrotation Xrotation Yrotation
        End Site
        {
          OFFSET 0 -5 15
        }
      }
    }
  }
  JOINT pelvis_left_femur
  {
    OFFSET 10.78128 -3.44521 -0.5502486
    CHANNELS 3 Zrotation Xrotation Yrotation
    JOINT left_femur_tibia
    {
      OFFSET 0.8047443 -44.0398 -0.1307829
      CHANNELS 3 Zrotation Xrotation Yrotation
      JOINT left_tibia_foot
      {
        OFFSET -4.370144 -48.10324 -4.275266
        CHANNELS 3 Zrotation Xrotation Yrotation
        End Site
        {
          OFFSET 0 -5 15
        }
      }
    }
  }
  JOINT pelvis_spine1
  {
    OFFSET 0 6.468898 -3.129235
    CHANNELS 3 Zrotation Xrotation Yrotation
    JOINT spine1
    {
      OFFSET 0 23.15396 4.99043
      CHANNELS 3 Zrotation Xrotation Yrotation
      JOINT spine2
      {
        OFFSET 0 20.79997 -5.064912
        CHANNELS 3 Zrotation Xrotation Yrotation
        JOINT neck
        {
          OFFSET 0 14.38658 9.616178
          CHANNELS 3 Zrotation Xrotation Yrotation
          End Site
          {
            OFFSET 0 20 0
          }
        }
      }
      JOINT right_manubrium
      {
        OFFSET -5.722621 16.35077 3.967754
        CHANNELS 3 Zrotation Xrotation Yrotation
        JOINT right_clavicle
        {
          OFFSET -13.16364 1.694482 -4.693211
          CHANNELS 3 Zrotation Xrotation Yrotation
          JOINT right_humerus
          {
            OFFSET -28.5034 -0.3100689 -2.792744
            CHANNELS 3 Zrotation Xrotation Yrotation
            JOINT right_radius
            {
              OFFSET -25.15693 0.02248979 -1.271978
              CHANNELS 3 Zrotation Xrotation Yrotation
              End Site
              {
                OFFSET -15 0 0
              }
            }
          }
        }
      }
      JOINT left_manubrium
      {
        OFFSET 5.722621 16.35077 3.967754
        CHANNELS 3 Zrotation Xrotation Yrotation
        JOINT left_clavicle
        {
          OFFSET 13.16364 1.694482 -4.693211
          CHANNELS 3 Zrotation Xrotation Yrotation
          JOINT left_humerus
          {
            OFFSET 29.39168 -1.063119 -2.237045
            CHANNELS 3 Zrotation Xrotation Yrotation
            JOINT left_radius
            {
              OFFSET 24.59957 -0.9528479 0.9047498
              CHANNELS 3 Zrotation Xrotation Yrotation
              End Site
              {
                OFFSET 15 -0 -0
              }
            }
          }
        }
      }
    }
  }
}
MOTION
Frames: 19
Frame Time: 0.0416666666667
1700.087 96.08848 2844.72 11.85777 -4.455296 73.7634 5.95292 3.703723 -9.073808 -0 7.399196 -0 -16.28633 10.95193 2.143133 0.7405715 -4.603651 0.396577 -0 24.48429 -0 4.227312 -6.767332 15.04788 2.074073 -3.282775 4.466486 -1.161745 17.46495 -5.360256 2.039183 23.28661 3.102205 0.3758967 -20.02872 6.067886 -10.69113 -26.94026 11.09266 100.9173 5.197669 -14.89921 -0 0 11.08284 -32.51919 11.01289 16.41454 4.878215 -28.37861 -10.23135 -87.74551 6.162884 20.91301 0 0 -18.08206 19.0581 16.61536 -9.765457
1707.544 95.72134 2846.511 11.64911 -4.368293 73.48307 5.982717 6.676571 -8.761168 -0 8.211102 -0 -15.90411 9.322362 2.401247 1.17299 -7.715059 0.2465325 -0 20.78202 -0 4.654779 -6.574305 15.88171 1.90336 -3.293497 4.879012 -1.323613 17.30155 -4.99591 2.00137 23.20562 3.068038 0.3342098 -20.09361 6.050314 -10.53905 -27.74889 11.02265 99.91937 5.824998 -13.51635 -0 0 13.05008 -32.54907 10.88847 16.88654 4.843057 -27.63997 -9.860948 -88.60484 6.543603 22.69349 0 0 -16.44433 18.38127 16.77057 -8.970624
1714.879 95.14906 2848.152 11.4566 -4.264187 73.21648 5.925221 9.500673 -8.458366 -0 9.409194 -0 -15.50456 7.845719 2.666686 1.508064 -10.616 0.02885324 -0 16.77953 -0 5.121836 -6.492095 16.73223 1.701742 -3.312339 5.255093 -1.490881 17.12563 -4.639211 1.963442 23.136 3.05467 0.2997788 -20.16004 6.053421 -10.38029 -28.52743 10.94524 98.9461 6.422882 -12.14034 -0 0 14.97029 -32.57734 10.73524 17.34903 4.810463 -26.89686 -9.502357 -89.46791 6.924727 24.4237 0 0 -14.79721 17.70534 16.93024 -8.17084
1722.104 94.40908 2849.65 11.32423 -4.147573 72.98662 5.764853 11.98434 -8.154442 -0 11.0934 -0 -15.06295 6.689338 2.878721 1.697226 -13.05888 -0.2426953 -0 12.98586 -0 5.522037 -6.509247 17.51191 1.475372 -3.319307 5.561819 -1.659213 16.93512 -4.30872 1.934376 23.09327 3.064785 0.280625 -20.18477 6.075552 -10.19938 -29.1592 10.86784 98.06134 6.959209 -10.88361 -0 0 16.66082 -32.60781 10.5599 17.75844 4.773871 -26.17223 -9.178557 -90.2461 7.324428 25.91752 0 0 -13.24852 17.00406 17.04645 -7.337
1729.256 93.57835 2851.027 11.31877 -4.02733 72.82355 5.48076 13.93445 -7.860839 -0 13.42783 -0 -14.57029 6.090158 2.979668 1.688022 -14.7594 -0.5465829 -0 9.917439 -0 5.751235 -6.620303 18.12387 1.23171 -3.296453 5.759089 -1.831788 16.73798 -4.020755 1.925149 23.09902 3.099748 0.2832084 -20.11667 6.11536 -10.00023 -29.52596 10.7939 97.36535 7.367173 -9.866059 -0 0 17.91408 -32.67429 10.36298 18.07947 4.726112 -25.49999 -8.9265 -90.83177 7.75021 26.97277 0 0 -11.90547 16.27231 17.07164 -6.464224
1736.393 92.76464 2852.319 11.50322 -3.911769 72.76321 5.059604 15.22038 -7.611628 -0 16.55959 -0 -14.04111 6.264914 2.935953 1.446068 -15.49876 -0.8597071 -0 7.891596 -0 5.753376 -6.828637 18.49861 0.9782429 -3.23634 5.814105 -2.017216 16.5513 -3.784795 1.944107 23.17203 3.158938 0.3094094 -19.91948 6.17238 -9.808582 -29.55638 10.72076 96.96237 7.567847 -9.174237 -0 0 18.57455 -32.82775 10.13908 18.29805 4.663718 -24.91731 -8.784533 -91.13704 8.189636 27.44694 0 0 -10.83956 15.53807 16.98109 -5.585259
1743.578 92.08287 2853.559 11.89822 -3.801558 72.84135 4.50822 15.8007 -7.448159 -0 20.49473 -0 -13.51068 7.294633 2.751428 0.9725964 -15.2082 -1.16863 -0 6.887979 -0 5.551102 -7.147073 18.62399 0.7215867 -3.146768 5.715326 -2.22024 16.39357 -3.604765 1.991932 23.31698 3.240652 0.3558484 -19.59577 6.247471 -9.658177 -29.25858 10.64277 96.91138 7.513477 -8.83338 -0 0 18.60394 -33.10085 9.88368 18.42086 4.591123 -24.45553 -8.773864 -91.13193 8.611681 27.31603 0 0 -10.07304 14.8594 16.78918 -4.767087
1750.861 91.6285 2854.771 12.46422 -3.687094 73.08531 3.856472 15.68493 -7.39963 -0 25.02932 -0 -13.02395 9.081526 2.460531 0.3031979 -13.95997 -1.475067 -0 6.622631 -0 5.229447 -7.59381 18.53932 0.468448 -3.046668 5.473792 -2.432398 16.27649 -3.485824 2.060755 23.52026 3.343648 0.4164356 -19.19043 6.342287 -9.570644 -28.70509 10.55762 97.20217 7.216002 -8.820549 -0 0 18.07375 -33.47865 9.601806 18.45972 4.520731 -24.13789 -8.889787 -90.84716 8.980411 26.66174 0 0 -9.60343 14.30646 16.54322 -4.090791
1758.265 91.45914 2855.963 13.11092 -3.552794 73.50703 3.15231 14.87242 -7.472299 -0 29.76241 -0 -12.62501 11.38652 2.109694 -0.5051254 -11.89555 -1.792418 -0 6.749503 -0 4.89126 -8.184917 18.30497 0.2277916 -2.957291 5.11456 -2.628571 16.20127 -3.440852 2.137126 23.75396 3.467854 0.4858264 -18.77538 6.457911 -9.543455 -27.98991 10.47026 97.7658 6.746935 -9.102925 -0 0 17.10707 -33.89245 9.313029 18.41456 4.469477 -23.98331 -9.105513 -90.34709 9.27139 25.61099 0 0 -9.441425 13.94222 16.30214 -3.62995
1765.778 91.58448 2857.133 13.71478 -3.386141 74.09746 2.459858 13.33193 -7.650665 -0 34.12477 -0 -12.3566 13.87785 1.746967 -1.379444 -9.18303 -2.136396 -0 7.007505 -0 4.626235 -8.922801 17.97914 0.01399297 -2.896843 4.670829 -2.769169 16.16104 -3.49154 2.205161 23.98097 3.612792 0.5605543 -18.43421 6.592762 -9.552348 -27.20264 10.39284 98.49663 6.220047 -9.662643 -0 0 15.83589 -34.23228 9.052177 18.26899 4.455308 -24.01128 -9.379993 -89.70606 9.475723 24.29524 0 0 -9.629447 13.81685 16.12039 -3.444563
1773.362 91.96191 2858.275 14.14412 -3.189325 74.82371 1.860731 11.04373 -7.909172 -0 37.42192 -0 -12.26855 16.18089 1.424035 -2.227406 -6.027153 -2.508812 -0 7.279548 -0 4.500015 -9.777842 17.60815 -0.1493528 -2.879802 4.1836 -2.809188 16.14962 -3.661619 2.24949 24.1607 3.773011 0.6370797 -18.24859 6.739614 -9.569123 -26.42827 10.34122 99.28086 5.756396 -10.49346 -0 0 14.3886 -34.37942 8.864661 18.00214 4.493312 -24.24484 -9.668437 -88.99818 9.585443 22.84406 0 0 -10.22968 13.97477 16.04112 -3.589649
1780.968 92.50359 2859.386 14.30662 -2.987552 75.63327 1.442312 8.07485 -8.230145 -0 38.99222 -0 -12.41993 17.9822 1.195687 -2.945933 -2.674905 -2.878012 -0 7.617349 -0 4.543734 -10.67302 17.21702 -0.2296839 -2.916266 3.697879 -2.717011 16.17302 -3.962731 2.260243 24.2608 3.933319 0.7089487 -18.27376 6.883627 -9.588686 -25.74657 10.3292 100.0417 5.425192 -11.5794 -0 0 12.87484 -34.2641 8.792231 17.61004 4.589393 -24.70772 -9.939971 -88.28623 9.570446 21.37824 0 0 -11.28681 14.45846 16.08806 -4.119752
1788.555 93.10175 2860.479 14.1996 -2.82296 76.46638 1.264509 4.61855 -8.615408 -0 38.48186 -0 -12.85968 19.16357 1.105094 -3.454978 0.6318861 -3.17588 -0 8.211599 -0 4.743295 -11.49684 16.80199 -0.1957637 -3.009266 3.250459 -2.494031 16.2532 -4.381665 2.238096 24.27203 4.070305 0.7664825 -18.51105 7.005358 -9.644041 -25.21528 10.36224 100.7776 5.194143 -12.87458 -0 0 11.35898 -33.91614 8.853204 17.12066 4.734668 -25.41232 -10.19392 -87.6073 9.372529 19.98483 0 0 -12.78563 15.29626 16.25428 -5.072961
1796.11 93.66301 2861.579 13.90789 -2.73342 77.26883 1.330161 0.9462032 -9.076821 -0 36.01013 -0 -13.59514 19.82898 1.165082 -3.731003 3.722819 -3.327663 -0 9.272925 -0 5.046751 -12.14872 16.34056 -0.03381154 -3.152645 2.859459 -2.174975 16.41503 -4.882161 2.193452 24.21119 4.162363 0.8005357 -18.90723 7.088707 -9.786713 -24.85246 10.4353 101.5432 4.951978 -14.30233 -0 0 9.856249 -33.44961 9.034507 16.58598 4.90756 -26.34321 -10.45456 -86.9717 8.935718 18.70118 0 0 -14.63764 16.47757 16.50045 -6.439387
1803.646 94.13092 2862.716 13.54505 -2.734349 77.99799 1.59181 -2.673231 -9.610811 -0 32.05847 -0 -14.57428 20.17817 1.35314 -3.803733 6.503673 -3.289836 -0 10.91849 -0 5.384936 -12.57295 15.81495 0.2448079 -3.331047 2.528426 -1.807856 16.66593 -5.418566 2.139949 24.10776 4.199022 0.8070709 -19.38367 7.126344 -10.04645 -24.63792 10.53688 102.3821 4.594933 -15.77019 -0 0 8.367606 -32.98952 9.303329 16.05879 5.082288 -27.44683 -10.74485 -86.38021 8.25103 17.53176 0 0 -16.70381 17.93151 16.76722 -8.135389
1811.191 94.48971 2863.921 13.20391 -2.81646 78.62395 1.984212 -5.988912 -10.18062 -0 27.25442 -0 -15.6887 20.36887 1.619063 -3.724605 8.892943 -3.058937 -0 13.16075 -0 5.681821 -12.74933 15.22719 0.6085546 -3.520414 2.260044 -1.437757 16.9869 -5.94377 2.08958 23.98986 4.180984 0.7882567 -19.86061 7.117962 -10.40889 -24.52935 10.65421 103.2776 4.09113 -17.17761 -0 0 6.921491 -32.6198 9.622602 15.57998 5.234714 -28.62977 -11.06538 -85.84138 7.375827 16.48045 0 0 -18.81621 19.51824 16.99219 -9.995621
1818.779 94.75764 2865.212 12.94666 -2.952778 79.12997 2.449402 -8.734314 -10.71756 -0 22.25246 -0 -16.78743 20.47163 1.895374 -3.540691 10.76353 -2.658681 -0 15.93855 -0 5.857203 -12.66862 14.60187 1.013862 -3.689414 2.065263 -1.104924 17.33704 -6.407795 2.051884 23.87961 4.115153 0.7506165 -20.26335 7.066292 -10.82078 -24.47876 10.77555 104.1512 3.486982 -18.41385 -0 0 5.593296 -32.38112 9.956917 15.18198 5.343923 -29.76381 -11.39115 -85.37636 6.423754 15.57202 0 0 -20.78126 21.03613 17.1257 -11.78415
1826.441 94.97658 2866.596 12.80672 -3.107502 79.51184 2.945917 -10.63261 -11.13684 -0 17.66275 -0 -17.70378 20.47957 2.111053 -3.283287 11.943 -2.130936 -0 19.11496 -0 5.841564 -12.32679 13.98524 1.412429 -3.805127 1.962654 -0.8446273 17.66422 -6.759977 2.033546 23.79212 4.011382 0.702754 -20.52896 6.975848 -11.20774 -24.44671 10.8906 104.8872 2.884716 -19.36638 -0 0 4.499178 -32.28204 10.27388 14.89249 5.395111 -30.70464 -11.67896 -85.01439 5.539081 14.85655 0 0 -22.39403 22.25742 17.14524 -13.23637
1834.202 95.19657 2868.061 12.78136 -3.246868 79.77458 3.449247 -11.47716 -11.36418 -0 13.92519 -0 -18.30286 20.32434 2.213077 -2.964183 12.27335 -1.53454 -0 22.45281 -0 5.607195 -11.74003 13.44072 1.760925 -3.844369 1.970553 -0.6791049 17.91944 -6.96249 2.036237 23.73228 3.881584 0.6531547 -20.6256 6.854053 -11.49754 -24.417 10.99145 105.3684 2.409714 -19.94947 -0 0 3.76702 -32.29986 10.54859 14.729 5.385291 -31.33146 -11.87994 -84.78497 4.857804 14.39971 0 0 -23.48725 22.99948 17.06177 -14.14003
